<svg data-name="Layer 1" xmlns="http://www.w3.org/2000/svg" viewBox="0 0 500.1 142.3">
    <path
        d="M498.6 118.1c-.6-2.5-.1-5.2-.1-7.7l-2-2c.5-2.3-.8-4.8 1-7l-2.8-1.8 1.2-2-4.2-3.6c-.5-2.7.4-4.7 0-6.9-.2-2-2-3-2.6-4.1-.4 1.3-3.4 2.3-2.5 4.6-1.4 2.3 1 4.8.3 6l-4.4 4 1.3 2.9-2 .8 1 5.4h-10.3c.6-4.9-.8-9.7 1-14.3.4-1.1.5-3-.1-3.8-1.5-2-.1-4-1-5.7-1.1-2-.9-4-1-6.1v-9l-2-2.9c.8-1.4 2.6-2 2-4.6l-2.8-2.7c-.2-2.4.3-4.5-.4-6.7l-1.6 1.6v4.6l-2.8 4.1 2.1 4.8-2.5 2.7a23.5 23.5 0 01-.5 16.5l-2.4-1.7 1-1.1-.7-.7V70.4l-2-4.2L460 65c1.9-3-1.2-3.4-1.5-5.2a47 47 0 00-1.5-5l-.8.2-1 6.3c-4-2-5.2-6-8.7-7.8 2.3-2 3.6-4.2 3-7.2l-1.1-1.1a9.8 9.8 0 01-3.8-9 10.2 10.2 0 00-.8-6 5.1 5.1 0 01.5-4.9L443 23c-.5 1.4-1.6 3-1.2 3.5a3.8 3.8 0 01.7 3.7c-.4 1.3-1.7 2.2-.5 4 .5.6-.3 2.1-.4 3.3V42l-3.9 3.8v5.5l2.5 1.1-3.6 4.4-3.8 3.7a14.7 14.7 0 01-3.8-8l.8-2.7-3.4.3 1 1.1-1.1 6.4-1.5.6-.4 2.4c-3.3-.7-.5-4-2.8-5.3l.3-.2-.7-2.4c-.2 4.1-.6 7.6-4 10l2.9 3.4-2.7 1.9c.8 5.8 2.5 11.3-.2 16.7h-2.5l-.2-3.6c-2.8-.5-3.8-3.3-6-4.8V65.9h-5.7l-1.6-6-2.7-2.6V51l-2-1.4c-2.3 2.3-1.8 5-1.9 7.5 0 .2-.3.5-.5.7l-1.4-1.4c-.2-2.9.7-6-2.1-9l-1.2 8.2-2.6 3.8c-.3-3 .4-5.7-2.2-7.7l-1.3 8-1.5 1.5-.4 4-4.2-7.2-2.3 1.2-1.8 3.9-1.6-13c-2-2.1-5-4-3-8-1.4-.8-.8-1.8 0-2.7l-2.4-3.3-2.4 3.7c1 2.4-.7 4.6 0 6.9l-.3 1-2.5 2.4-1.5 13.7a5.5 5.5 0 01-1.6-3.3c-.1-1.5-.8-2.4-2.7-2.8.1 1.4-2 2-.5 3.8l-2.8 2.8c-.3 1.8.3 3.7-.8 6.4-.5-4.7-.5-8.6-3.2-11.6-.2-2.5.6-5.1-1.9-7.3l-1.7 6.5c-.5-2.2-1.9-3.6-1.5-5.6a7.5 7.5 0 00-1.5-5.8 18.6 18.6 0 00-1.5 8.4c0 .8-.8 1.7-1.3 2.6-2.4-2-1.9-3.8-1-5.2l-2-2.9-1.5 1.5v6.1l-.7-.5-1.2 3.2-1.6-3.2-.9.5 1-4.2-1-2.5-1.5 1.5c1.4 2 .5 4.2.8 6.1l-2 2a10.6 10.6 0 000 2.5 17.6 17.6 0 001.3 2.8l-4.4.4v8c0 2.2-.4 4-2.8 5.3-1.6.9-2.6 2.8-4.1 4.5 0-3.4-.3-6.5 0-9.6s-2.8-6 .1-9.3l-3.7-1.3 1.7 3.6-1.7 1.6-2.6-2.8 1-6.9-1.3-1.2-1.7 1.5c1.9 3.6 1.6 6.7-1.2 9.3-.2.2-.9 0-1.7 0l.7-3.8-1.1-1-1.5 1.4c1.8 1.4.7 3.4 1 5.3l-1.8 1.5c.3 2 1.1 3.7.7 5-1 3-.4 6.3-2.5 9-.5.6-.3 1.8-.4 2.8a2 2 0 01-.3.6l-3.1-.8-4.6-6.7v-7.7l-1.7-1.7v-4.5l2-.7-2.8-1.3-1.5 1.2c2 2 .6 4.2 1 6l-2 2.2c.9 6.2-1 11.4-7 14.6-.2 4.3.7 8.6-1.2 12.2l-3 2v3.5h-2.5c-.3-3.6-3.7-4.6-6.2-5.8-2-1-3.5-1.8-4.3-3.8-.3-.8-1.1-1.2-1.6-1.7l-.5-3.6-.7.1v3.6l-2.8 1.8 1 1.3c-4.6 2.1-8.8 4.3-11.5 8H234l-4-9c0-2.8.2-6.3 0-9.8a18.2 18.2 0 012.2-9.5 7 7 0 00.6-4.4h-4l1 5.8-1.6-.1-.5-3-1.5.3-.5 3.5-4-5.7 1.3-1.4-1-1c-.2-1.8.4-3.7-.8-5.4v9.5a4.7 4.7 0 01.8 1c1.5 3.5 1 7.4 2 11.1.4 2-.3 4.1 1 6.1.4.7-.3 2.1-.6 3.2l-2.3 6.5c-.2.4-.3 1.2-.5 1.2-2.5.3-1.6 3.1-3.5 4.3-.5-1.5-.6-3-1.4-4-2.2-2.7-3.5-6-6.3-8.5-2.3-2-5.8-5.3-8.1-6.7-4.6-2.7-10-2.5-14.8-3.9-.6-.2-1.6-.2-2 .1-1 1.3-2.4 1-3.6.8a13 13 0 00-5 1 31 31 0 00-16 11c-3.3 4.6-6 9.8-5.8 15.6-1.6 1.8-3 2-4.4.4a3 3 0 01-.3-.6l.8-1.1c-1.3-3-2.4-6-5-7.7a8.4 8.4 0 000-2.3c-1.2-3.5-1.5-7-2-10.7 0-.2-.4-.3-1-.7V98l-1.5 1c1 4-.8 6.8-2.4 9.8v-2.4-23c0-4.5.2-9-1.5-13.5-3.8-2.7-8.2-1.8-12.4-1.9l-.3 3.1h-6v40.3l-6.9-.7V62l-6.5-1.3-.8 2.2c-.5-.4-.8-1-1.2-1H90.9l-2 2h-9.6v42.7H74a15.2 15.2 0 00-8.5-7.2l-.2-4.6h-.6l-.4 3.9c-3.7 2-7.6 3.9-9.4 8h-7c-.5-1-1.4-2-1.3-3 0-4.3-1.8-8.3-1.2-12.6.3-1.6-.3-3.5.3-4.9.8-1.8-.4-3.1-.3-4.7.3-5.2 0-10.3.1-15.5a36.2 36.2 0 01.8-5l-3-1.9V49.1l-1.9-.5V1.1a2.6 2.6 0 00-.9 2.1c0 5.7.2 11.3 0 17-.3 6.2 1 12.5-1 18.6.7 5.4-1 10.7-1 16v4.8L35 61.2a30 30 0 01.5 3.4v15.9c0 1.6.5 3.6-.8 5 1.7 1.5.6 3.5.8 5.2.6 4.4-.7 8.6-1.2 13h-5v-9.8H26c-2.2-3.3-1.2-6.8-1.5-10.1s-.8-6.6-1.3-9.9c-.6 3.4-.6 6.8-1.3 10s.7 6.8-1.4 9.4l-4.3 1.8v8.9h-5.6l-.3 3.8H.5v34h498.7a4.8 4.8 0 00.3-1.2c-.5-7.5 1-15-.9-22.5z"
        fill="none" stroke="#000" stroke-miterlimit="10"
    />
</svg>
