<svg viewBox="-100 -100 200 200" width="256px" height="256px" stroke="blue" strokeWidth="4" fill="#60a5fa" xmlns="http://www.w3.org/2000/svg">
    <path
        d="M11.759809555694872,-78.02123852211541C15.908688412715364,-78.62623009524171,22.275989699754714,-81.91251077726643,24.491986632667164,-79.40107050751273C29.198859586369366,-74.0666631782543,7.693235866322607,-25.024474503994373,11.16344006231795,-23.181122148756042C13.51210495816624,-21.933524969194178,23.010266329106067,-39.17942713327094,29.083636453047617,-42.65785993529112C33.411771285313584,-45.13673506802377,37.75195044797255,-45.1402941381797,42.22035458302479,-45.50272046750145C46.77375606345469,-45.8720408187058,53.77858119404453,-47.13049006675424,56.15936496858394,-44.7855990989804C58.36045944142225,-42.61768842864915,58.882461191219,-36.948511396439294,56.95322614090955,-32.88196044367175C53.39734431231469,-25.386671243072897,33.216205351179504,-14.81705339004791,23.926516890303215,-9.390465896105441C17.739054789952142,-5.776049266913028,7.327506090403123,-3.077530970469264,7.652226132577125,-1.7465706793185036C8.093062470215173,0.060326290650980365,39.12395392962349,-5.859726297523628,40.76445336307653,-3.054873460603811C41.510766975116674,-1.7788596996258081,36.57773838338954,0.8539741314419336,37.16898531669283,2.785430379507691C38.361508026204305,6.68110460377411,62.98308279058465,12.270916780183198,62.58922780262665,14.285582813068071C62.22504840241634,16.148450848037307,46.75751739343174,16.21775523620301,38.75256644535415,15.209261559468324C30.278167255188983,14.141625036416354,14.206992220289369,5.603758358484946,13.129664565082178,7.580415371019691C11.466118050732504,10.632653812475674,62.301354033132384,48.03421386143142,61.52733799522012,49.066414739961274C60.852675698163765,49.966120923842034,28.471726588582452,24.82053613426576,20.968842711916622,22.599037783329525C18.42854049505745,21.84689003875586,17.24737285630747,23.02225803083302,15.417066021380416,22.61268270269096C13.437662747415754,22.169743447922873,11.317743353706577,20.555848655827663,9.550030874756734,19.830843449358778C8.149740751768212,19.25653193556737,6.734563610792537,18.144156960227587,5.703005557116904,18.48868991874278C4.646173007465919,18.841664376834593,4.009704817942281,20.08938937049079,3.322177848321044,22.04120985881296C1.2655247606886217,27.879842830583435,4.266737420152446,57.52900558192337,7.368040765506098e-15,60.164618652790466C-2.092556048448026,61.45721473493104,-6.624189683865057,59.29395748674356,-8.557383615037278,56.77453065817227C-11.494369020908612,52.94691682835448,-8.172858582445397,37.66600989796225,-11.003085152670263,35.67112595276623C-12.643127338768613,34.51514294387523,-15.175263444990861,35.673009666682105,-17.953054336304604,37.27990146316229C-24.612546706564135,41.132273393661144,-42.84639887906786,68.77108889954067,-45.882719398201345,67.29758916834626C-48.09152560688799,66.2256748779244,-45.778783130784426,53.27567431898816,-42.54921796305622,45.857150898068795C-38.12154681648687,35.686499310301265,-15.494086312962333,16.227449972307994,-17.321059492833783,13.813084012783897C-18.75458729217493,11.918660625022786,-31.81064105533765,20.834102389432946,-40.5282967145709,23.399023017954512C-51.008272045220224,26.482455762113137,-75.07197145140817,32.4404307307333,-76.22532416749202,29.91623520866536C-77.23720501427803,27.701661066076774,-53.64064643892134,16.47172454673679,-54.447429882112175,12.427270567907366C-55.191838420860506,8.695505740771333,-71.857737257428,9.625310192737853,-77.28185940322513,5.791474723683351C-81.60057086703948,2.738956962184712,-87.46362938203411,-3.7495867882143252,-86.07802705403745,-6.450656360982806C-83.36322507122419,-11.742845096310857,-29.180886167573984,-2.3249229711441997,-28.209327539994263,-6.438594927938026C-27.322923620491654,-10.191713723386933,-71.66297623875695,-27.131181194378982,-71.293132878772,-27.980492772683665C-70.85002711655196,-28.9980447824921,-8.306625757405271,-1.7008518389506968,-6.527796092547483,-3.7688248312472776C-6.1599729784327115,-4.196436468808192,-7.10658746318259,-5.110074634156113,-7.965338172798826,-6.352145226256252C-10.83684638811339,-10.50540631737086,-25.36955714841036,-23.572920644460435,-29.31193410312889,-31.5907518311738C-32.14253027364291,-37.34749262831534,-32.42789958558457,-42.540175998441306,-32.896315603181534,-48.25003316394441C-33.38112282374328,-54.15969440143418,-34.69480410697396,-65.06445330343328,-32.016427371605296,-66.48279647894257C-29.460625425076667,-67.83622977342395,-21.142372504414034,-56.48178947080026,-17.833706941808302,-57.815457910146606C-13.95360409017523,-59.379463282320124,-15.955478150954855,-77.82189581917338,-12.047445305289614,-79.92957703051852C-9.132666744109123,-81.50157610300481,-4.029356184210624,-76.1519410727825,0,-75.86128895168052C3.907204002360633,-75.57944811186735,7.751011607353684,-77.43667361658474,11.759809555694872,-78.02123852211541"
    />
</svg>