<svg viewBox="-100 -100 200 200" width="256px" height="256px" stroke="blue" strokeWidth="4" fill="#60a5fa" xmlns="http://www.w3.org/2000/svg">
    <path
        d="M11.835641591123915,-78.52435120398378C15.680632809661434,-74.06328872111507,13.375240283915241,-56.629453087495996,17.13489501163856,-55.54996527489859C21.097776879969288,-54.412126034480686,30.912229938419127,-74.3608002169695,35.66718694547263,-74.06367684781944C39.0001662838186,-73.85540870809746,42.52297830855481,-68.19285031869997,43.56941897526433,-63.904600619984855C44.92220966873663,-58.360947292798514,42.51888291209225,-49.73363277886921,39.66795039910924,-42.75188298051628C36.35882679224352,-34.648052753126656,21.728394626910198,-21.059686707684403,23.474020162235956,-18.719906409472188C24.94412565652553,-16.74942430880197,36.48449267510497,-23.92223398609189,43.08397836084259,-24.874546504392473C49.500985570647195,-25.80052719242225,59.13804671530004,-27.20466149867147,62.5132188238088,-24.534630431672245C64.93591936788981,-22.618080545986473,66.02118171238456,-17.85840540048614,64.98769109854918,-14.833016408926689C63.60531241482541,-10.786309843896875,50.61680512368122,-7.1132624908261,50.86627628812005,-3.8119004341431317C51.116079781147526,-0.5061405265290511,61.52565527932834,1.4067985385833426,66.52515861486384,4.985371438810559C71.86715481017724,8.809095823948475,82.83772724547389,16.466380844921908,81.7971976529555,18.66967658768838C80.06630165031115,22.334806172871616,27.32326484336752,6.424368441059959,25.706538348712975,10.089072838192653C24.600325624752134,12.596573424758882,46.9031006037813,25.977603021158306,46.37718914640946,26.775882637937702C45.70911303376607,27.78995361073141,10.184032545440665,4.587929880266091,8.470425570357632,6.754938984869269C6.532459558941359,9.205670133969008,46.127480883501654,42.07150945604819,44.56410305517807,48.02868057910608C43.89300474778093,50.585866299109696,38.51903024157382,52.22360723625093,35.03575258489154,51.38801088050346C29.015174621938773,49.94374674161523,16.99395711044153,28.08134675007318,14.221138744392942,29.530498886355787C10.63645145319987,31.403956343773146,28.818799471031973,73.79544530513583,24.35216161813205,78.94776894384913C22.12083167871692,81.52163644133458,15.870885999684925,78.8872212758702,11.785911315974602,78.19441238645294C7.7562922658537685,77.51099177432002,3.252735658431682,77.4252120920172,9.16706290796627e-15,74.85474925789816C-3.9669624485942343,71.71987123237369,-7.493449562861098,66.01346294684978,-8.884943380265508,58.94774770323433C-11.189667433378947,47.24483988522711,0.0016132327863792072,10.210136553537112,-2.8768457316275207,9.326504795308159C-5.8988903970341635,8.398794977605952,-27.68434737687691,58.51017894410585,-28.08380771485593,58.31662761712161C-28.488767747866113,58.120411511759926,-2.6350461385749533,8.269314946655847,-4.624464672236725,6.782843905453393C-5.514335074047729,6.117942799761704,-9.745100845847382,11.780312515083939,-13.181916271220503,14.206726997894934C-17.552847192242147,17.292633215562095,-28.59745150843107,23.925077520796858,-29.13012033082218,23.23049577877299C-29.697954794070498,22.490059255956172,-13.441112118514344,10.095748424192324,-14.526145015713155,8.386673735109522C-16.501844533807382,5.274677731739256,-76.93676713708173,35.00788849497446,-79.66595019258378,31.266581416515233C-81.12897075566717,29.260996200250435,-71.3201674055555,20.24455990648652,-67.68886440851759,15.449541590123829C-64.66027503293402,11.45038714321854,-62.179150942467174,7.790718281706241,-59.35654753483552,4.448158305036373C-56.790645859913035,1.4095875233684176,-55.34178286794782,-1.999786359711424,-51.54687338734007,-3.862904135756725C-45.99132045760091,-6.590413045270933,-27.7039936160215,-3.660561915144836,-27.21835166015608,-6.212411150086925C-26.57904926925577,-9.571682929248714,-64.95390686355424,-21.00448020502592,-64.93524956546767,-25.485207449762367C-64.92513224165458,-27.91497880480283,-58.44020119015444,-30.8427710806658,-53.79746256936913,-31.05997949614409C-46.465153324395914,-31.403018250418842,-29.59172110100651,-18.789389151430953,-24.840618256631757,-19.809732023050234C-22.984691282828244,-20.20830934709373,-21.773568497318067,-21.252695206390815,-21.516485153290766,-23.189255965343737C-20.63770727844486,-29.808925375283682,-51.65852883044663,-68.15632198393519,-48.70932850486067,-71.44346327725803C-46.954525923533645,-73.39934398724799,-34.54395861312135,-61.84333556484309,-30.685289633420624,-63.718660483817196C-26.8046623968518,-65.60465718274925,-28.85913078950442,-81.95612968469977,-25.565035390344104,-82.87980913921962C-22.16493018632175,-83.83321422911527,-14.662905170470365,-67.83165799164838,-10.29125476023249,-68.27801407303579C-6.2440873650158615,-68.69123965370373,-4.125382812040664,-81.9227082904364,0,-83.17997524896633C3.457155310281604,-84.2335907169508,9.011664023746302,-81.80080611955128,11.835641591123915,-78.52435120398378"
    />
</svg>