<svg viewBox="-100 -100 200 200" width="256px" height="256px" stroke="#8c00ff" strokeWidth="4" fill="#9494e4" xmlns="http://www.w3.org/2000/svg">
    <path
        d="M6.406874808695311,-42.50683697411396C11.177510474865667,-51.56339127996112,22.190107822800737,-82.59917425242979,25.28846429205144,-81.98318766031565C27.70200752606562,-81.5033493052409,28.257559311358072,-64.96084977959721,26.711969117167197,-55.46797541637715C24.775549393593273,-43.57466163925928,12.956939203258145,-23.511721677824582,11.390035182279968,-16.706113289791972C10.8559983398822,-14.386605798917188,10.132864260816497,-12.383803956207878,11.021688757351583,-11.878555439873388C13.584448937371796,-10.421765281946852,35.30422203162074,-33.26403796842383,43.93994480352551,-35.04093668977327C48.761663080941204,-36.03306036814343,55.77689473637891,-34.5660987545219,56.21939395315869,-32.45828223253378C57.00496243293904,-28.716277370052474,22.961593290940566,-12.429033054574118,24.05897575937451,-9.442452171347817C24.971585958438098,-6.958738194897751,44.77430909598332,-13.572439729544458,51.315779045160674,-11.712491700304726C55.65014297945241,-10.48009413213926,57.24608409031042,-7.090146751315344,60.967976027441445,-4.568918176188781C65.74432078752879,-1.3333978824236485,78.32380069199999,3.4116231381812088,77.78953899370634,5.8295200494390835C77.08329456437362,9.025755582943653,53.06857872761717,9.31199827994464,43.47538390521718,9.92297267297237C36.58880962607951,10.361566970089324,27.071742965229756,7.964729235775547,25.66775534379928,10.073851630414678C24.80612092598815,11.368230881953753,26.842755351532066,13.861967471059389,28.203442005809304,16.28326483412801C30.480715147269997,20.33559784928101,37.605269327133946,26.423959364842293,39.366661910333534,31.393865282621526C40.75113667623442,35.300268317184056,41.499233229353706,40.536046172626186,39.887931516278144,42.98896624003704C38.470066214253606,45.14741380078785,34.29170429561564,45.27332058217115,31.487757426195984,46.18405776497528C28.76501854764983,47.06841815097349,26.1027075300704,48.25896063656777,23.308540258593673,48.40068256983744C20.437563198727318,48.546300344210024,16.595210543803717,45.40080476682423,14.480994499618635,46.94623112971666C10.931878354058592,49.54052496804089,14.453262969158146,69.90236006611359,10.836098968169086,71.89281920261622C8.354623307604458,73.25832983448947,2.7529477992856166,70.25697790327128,8.212354658654212e-15,67.0589647919055C-3.957203439639592,62.462005674993364,-4.550874502781944,49.633060935018,-6.546381302175745,43.43240208226232C-7.870473907129271,39.318035478616814,-8.133848100397232,33.51628207824314,-10.272162798556547,33.301533879859726C-14.880257497331035,32.838748848547986,-32.91465048986135,76.9484506713949,-36.585128999063315,75.96980316291406C-38.9796869544153,75.33135011897355,-38.70840349943897,62.05273606048491,-37.25641570441797,54.64512546000776C-35.52115786381016,45.79235519656243,-29.600740622612822,34.802287390411905,-24.87050751542086,26.80403238048818C-20.833122780464436,19.977300599710354,-10.141335504858903,10.652472751048872,-11.44354592488123,9.125923349546461C-13.714731957920138,6.46346755428662,-61.658776204287264,43.63739861581191,-70.98393579686042,40.98259444045644C-74.97294654512312,39.846952494075175,-77.09687709110062,34.14171559124752,-77.17503118057351,30.288967744642974C-77.26472419733861,25.867387510931554,-74.71038995090662,19.935407020676045,-69.59871731379292,15.885453052797994C-59.79511161026788,8.118102786619353,-11.64224232739087,3.756265265681623,-11.649160396006716,0.872983886601343C-11.651996850271829,-0.3091807057643475,-21.406294690311533,-0.8626311366005537,-21.40279604916664,-1.6039178313264872C-21.399846399385346,-2.2288850818720505,-14.998316946484287,-2.20432677225771,-14.453687218230897,-3.298959788437519C-14.094285048343759,-4.021310150226961,-14.862385426455361,-5.049997308810767,-15.690101868284957,-6.157911206886208C-17.486347176769584,-8.562219060459835,-22.691519057863,-11.549211069382261,-26.950244547369785,-15.559730944150195C-33.31832650398911,-21.556670477844033,-50.1841778248028,-38.58974923365208,-49.44423421710465,-39.43046102180975C-48.54177400522741,-40.455821509521336,-12.146395837382359,-8.820140095905057,-9.97488414218517,-10.750368378006348C-8.420344782019548,-12.132178038653299,-22.669563901731824,-32.25752598390565,-22.200034366495736,-32.56147002433699C-21.6754673975395,-32.90104185540659,-5.4018323975150295,-6.625989892364526,-3.609019221683757,-7.494205634467158C-1.7084321829300821,-8.414613632649708,-11.122230788077589,-29.197706613915244,-12.756112263753502,-41.35430026346303C-14.591602426346277,-55.01092614885786,-14.68524690428165,-85.40559678324998,-12.904781327666436,-85.6176298836424C-10.907060822537721,-85.85553556291153,-4.404110166670056,-32.05031465771875,0,-31.40762819834582C2.1120481508638242,-31.099419571237352,3.825149896514639,-37.60570146386604,6.406874808695311,-42.50683697411396"
    />
</svg>